<svg width="26" height="28" viewBox="0 0 26 28" fill="none" xmlns="http://www.w3.org/2000/svg">
<path d="M4.03996 6.26974V4.76974C3.27023 4.76974 2.62542 5.35237 2.54764 6.11816L4.03996 6.26974ZM2.35999 22.8093L0.867664 22.6577L0.859985 22.7333V22.8093H2.35999ZM13.56 7.76974C14.3884 7.76974 15.06 7.09817 15.06 6.26974C15.06 5.44131 14.3884 4.76974 13.56 4.76974V7.76974ZM13.56 28.044C14.3884 28.044 15.06 27.3724 15.06 26.544C15.06 25.7156 14.3884 25.044 13.56 25.044V28.044ZM21.96 6.26974L23.4523 6.11816C23.3745 5.35237 22.7297 4.76974 21.96 4.76974V6.26974ZM23.64 22.8093H25.14V22.7333L25.1323 22.6577L23.64 22.8093ZM12.44 4.76974C11.6116 4.76974 10.94 5.44131 10.94 6.26974C10.94 7.09817 11.6116 7.76974 12.44 7.76974V4.76974ZM12.44 25.044C11.6116 25.044 10.94 25.7156 10.94 26.544C10.94 27.3724 11.6116 28.044 12.44 28.044V25.044ZM15.98 10.0045C15.98 10.8329 16.6516 11.5045 17.48 11.5045C18.3084 11.5045 18.98 10.8329 18.98 10.0045H15.98ZM17.48 5.20268H18.98V5.11441L18.9696 5.02676L17.48 5.20268ZM8.51999 5.20268L7.02725 5.05527L7.01999 5.1288V5.20268H8.51999ZM7.01999 10.0045C7.01999 10.8329 7.69156 11.5045 8.51999 11.5045C9.34841 11.5045 10.02 10.8329 10.02 10.0045H7.01999ZM2.54764 6.11816L0.867664 22.6577L3.85231 22.9608L5.53228 6.42132L2.54764 6.11816ZM4.03996 7.76974H13.56V4.76974H4.03996V7.76974ZM0.859985 22.8093C0.859985 24.1222 1.20543 25.4758 2.17957 26.507C3.1693 27.5547 4.59359 28.044 6.27996 28.044V25.044C5.16635 25.044 4.63065 24.733 4.36039 24.4469C4.07454 24.1443 3.85999 23.6304 3.85999 22.8093H0.859985ZM6.27996 28.044H13.56V25.044H6.27996V28.044ZM20.4677 6.42132L22.1477 22.9608L25.1323 22.6577L23.4523 6.11816L20.4677 6.42132ZM21.96 4.76974H12.44V7.76974H21.96V4.76974ZM22.14 22.8093C22.14 23.6304 21.9254 24.1443 21.6396 24.4469C21.3693 24.733 20.8336 25.044 19.72 25.044V28.044C21.4064 28.044 22.8307 27.5547 23.8204 26.507C24.7945 25.4758 25.14 24.1222 25.14 22.8093H22.14ZM19.72 25.044H12.44V28.044H19.72V25.044ZM18.98 10.0045V5.20268H15.98V10.0045H18.98ZM18.9696 5.02676C18.5556 1.52061 15.6366 -0.161055 12.9585 -0.155992C10.2819 -0.150931 7.37383 1.54536 7.02725 5.05527L10.0127 5.35008C10.1726 3.73098 11.4399 2.84688 12.9642 2.844C14.4872 2.84112 15.7949 3.72396 15.9903 5.37859L18.9696 5.02676ZM7.01999 5.20268V10.0045H10.02V5.20268H7.01999Z" fill="white"/>
</svg>
